<?xml version="1.0" standalone="no"?>
<!DOCTYPE svg PUBLIC "-//W3C//DTD SVG 20010904//EN"
 "http://www.w3.org/TR/2001/REC-SVG-20010904/DTD/svg10.dtd">
<svg version="1.0" xmlns="http://www.w3.org/2000/svg"
 width="512.000000pt" height="512.000000pt" viewBox="0 0 512.000000 512.000000"
 preserveAspectRatio="xMidYMid meet">
<metadata>
Created by potrace 1.14, written by Peter Selinger 2001-2017
</metadata>
<g transform="translate(0.000000,512.000000) scale(0.100000,-0.100000)"
fill="#000000" stroke="none">
<path d="M2349 4896 c-2 -2 -31 -6 -64 -10 -33 -3 -70 -8 -81 -10 -12 -3 -37
-7 -55 -10 -381 -64 -750 -220 -1049 -444 -223 -167 -430 -403 -570 -652 -56
-100 -160 -312 -164 -335 -1 -5 -9 -30 -18 -55 -40 -108 -92 -314 -103 -405
-4 -27 -8 -57 -10 -65 -28 -108 -27 -565 1 -715 2 -11 6 -31 9 -45 2 -14 7
-38 10 -55 2 -16 12 -57 21 -90 16 -62 21 -81 28 -114 9 -39 79 -227 118 -316
172 -393 457 -728 819 -966 142 -94 351 -199 484 -244 136 -46 316 -94 424
-111 18 -3 43 -7 55 -10 138 -27 572 -26 706 1 14 3 36 7 50 10 58 11 75 15
148 30 71 15 235 63 297 86 177 65 421 200 578 318 565 426 920 1149 921 1876
0 94 -9 228 -18 285 -3 14 -7 41 -10 60 -10 61 -23 135 -32 176 -15 73 -85
298 -116 372 -221 531 -568 918 -1058 1178 -140 75 -395 168 -540 199 -14 2
-47 9 -75 15 -27 6 -61 13 -75 15 -14 2 -41 6 -60 9 -19 3 -53 9 -75 12 -42 7
-490 15 -496 10z m486 -201 c22 -3 51 -8 65 -11 14 -2 43 -7 65 -10 81 -12
307 -75 397 -110 501 -197 876 -537 1106 -1003 70 -140 128 -288 157 -396 17
-63 18 -69 35 -150 18 -89 20 -99 26 -150 3 -27 9 -75 14 -105 8 -56 5 -367
-5 -430 -2 -19 -10 -69 -16 -110 -6 -41 -13 -84 -16 -95 -2 -11 -6 -31 -9 -45
-10 -50 -56 -207 -80 -274 -30 -83 -119 -277 -151 -328 -13 -21 -23 -40 -23
-43 0 -13 -135 -202 -198 -278 -246 -293 -593 -524 -973 -646 -35 -12 -73 -23
-84 -25 -11 -2 -47 -11 -80 -19 -60 -16 -70 -18 -155 -32 -25 -4 -54 -9 -65
-11 -107 -21 -419 -21 -565 0 -35 5 -91 15 -116 20 -12 2 -39 7 -60 10 -22 4
-53 11 -70 16 -17 6 -40 12 -52 15 -38 7 -257 83 -317 110 -236 105 -427 231
-603 399 -226 216 -393 467 -502 756 -18 47 -36 94 -41 105 -7 16 -35 110 -45
150 -14 52 -32 144 -40 195 -3 19 -7 46 -10 60 -23 132 -23 541 0 611 3 8 7
33 10 56 3 22 8 52 10 65 3 12 8 34 10 48 2 14 9 45 16 70 7 25 14 54 16 66 2
11 19 65 38 120 191 553 540 947 1062 1199 80 39 230 99 274 111 8 2 58 15
110 29 52 14 106 27 120 30 14 3 36 7 50 10 25 5 70 12 170 25 60 8 460 4 525
-5z"/>
<path d="M1842 4244 c-22 -13 -43 -32 -47 -41 -12 -28 -14 -106 -3 -128 20
-38 62 -75 86 -75 l24 0 -6 -132 c-7 -132 -9 -151 -20 -240 l-7 -47 33 -4 33
-3 -32 -8 c-34 -9 -33 -7 -53 -123 -6 -35 -13 -75 -15 -90 -3 -16 -8 -42 -10
-59 -3 -17 -9 -43 -15 -58 -5 -14 -7 -26 -5 -26 2 0 0 -11 -5 -26 -6 -14 -12
-38 -15 -53 -3 -16 -19 -62 -36 -102 -59 -140 -60 -145 -46 -185 23 -71 92
-94 207 -71 59 12 227 21 407 21 l173 1 9 25 c5 14 12 34 16 45 6 17 9 14 21
-19 8 -22 16 -42 19 -44 3 -3 37 -7 76 -8 136 -6 403 -24 449 -30 19 -2 74 -7
122 -11 81 -5 91 -4 123 18 35 24 55 62 55 106 0 30 -22 84 -43 104 -8 9 -18
33 -21 55 -4 21 -10 50 -15 64 -5 14 -14 45 -19 70 -12 48 -24 99 -28 115 -6
24 -19 101 -28 170 -8 52 -17 115 -22 140 -12 63 -21 167 -24 272 -2 65 -4 72
-24 76 -20 4 -20 4 2 6 19 1 22 5 17 31 -5 27 -3 30 23 30 106 0 139 174 45
236 -26 16 -83 16 -203 -1 -19 -3 -59 -7 -88 -11 -29 -3 -62 -7 -73 -9 -11 -2
-48 -7 -82 -10 -34 -4 -67 -11 -72 -15 -6 -5 -17 -5 -24 -1 -14 9 -135 6 -150
-3 -5 -3 -11 -20 -15 -37 -7 -36 -16 -32 -32 13 -11 34 -9 34 -132 43 -48 3
-100 8 -117 10 -16 2 -57 7 -90 11 -75 8 -95 10 -170 19 -106 13 -113 13 -153
-11z m147 -1418 c-13 -15 -19 -3 -12 24 6 22 7 22 14 4 3 -10 3 -23 -2 -28z"/>
<path d="M1686 3759 c-46 -8 -63 -27 -95 -112 -13 -34 -34 -84 -47 -112 -12
-27 -52 -122 -89 -210 -36 -88 -70 -169 -75 -180 -13 -27 -101 -238 -104 -250
-5 -18 -36 -90 -47 -109 -22 -38 -56 -142 -53 -160 3 -24 42 -65 74 -79 18 -8
404 -11 1290 -13 1250 -1 1266 -1 1313 19 30 12 57 33 72 54 l23 35 -25 56
c-14 32 -38 86 -55 122 -16 36 -41 91 -54 123 -14 32 -38 87 -54 123 -17 35
-30 68 -30 73 0 5 -21 55 -46 112 -62 140 -63 142 -135 318 -35 85 -71 164
-80 175 -14 18 -29 20 -123 21 -98 1 -110 -2 -108 -26 7 -65 17 -136 27 -189
3 -14 7 -41 10 -60 15 -98 39 -221 52 -270 8 -30 16 -62 18 -71 9 -43 36 -120
59 -171 32 -73 36 -103 20 -158 -25 -85 -107 -131 -222 -125 -37 2 -87 6 -112
10 -144 21 -330 29 -660 29 -266 0 -427 -6 -510 -19 -19 -3 -57 -6 -85 -7 -87
-2 -165 54 -186 134 -12 44 -11 52 18 130 62 164 101 315 133 507 29 172 33
200 34 246 l1 40 -55 0 c-30 0 -73 -2 -94 -6z"/>
<path d="M1504 2475 c-3 -6 -3 -125 -2 -265 l3 -254 35 -20 c38 -23 135 -30
180 -14 64 22 65 24 67 307 l1 257 -140 -1 c-86 0 -142 -4 -144 -10z"/>
<path d="M1879 2351 c-3 -245 -2 -248 56 -275 55 -26 117 -10 148 38 13 19 16
56 17 187 0 90 1 169 0 175 0 7 -39 10 -110 10 l-110 0 -1 -135z"/>
<path d="M3015 2309 l0 -179 30 -30 c35 -35 81 -43 124 -23 58 28 64 51 66
228 1 88 0 165 -2 171 -2 7 -43 11 -111 11 l-108 0 1 -178z"/>
<path d="M3322 2228 l-1 -257 27 -19 c62 -43 164 -50 225 -14 l32 18 3 265 2
264 -144 1 -144 0 0 -258z"/>
<path d="M1770 1887 c-34 -15 -64 -20 -120 -20 -78 0 -81 1 -143 22 -45 15
-54 10 -41 -27 14 -41 78 -68 179 -76 33 -3 107 19 142 41 22 15 47 69 35 77
-4 2 -27 -5 -52 -17z"/>
<path d="M3292 1897 c-18 -21 9 -60 60 -85 105 -52 269 -20 297 59 12 35 -2
38 -52 12 -60 -31 -203 -22 -275 16 -15 8 -23 7 -30 -2z"/>
<path d="M3321 1468 c-1 -326 1 -337 55 -373 31 -20 115 -27 156 -13 15 6 39
23 53 39 l24 30 0 289 c-1 158 1 293 5 298 9 15 -16 21 -39 9 -36 -18 -142
-17 -200 3 l-54 19 0 -301z"/>
<path d="M1501 1470 c-2 -318 1 -339 57 -379 58 -41 169 -22 207 35 18 27 20
50 22 332 1 166 0 302 -2 302 -2 0 -16 -5 -32 -11 -45 -17 -153 -19 -198 -3
-22 7 -43 14 -47 14 -3 0 -7 -130 -7 -290z"/>
</g>
</svg>
